<svg width="20" height="20" viewBox="0 0 20 20" fill="none" xmlns="http://www.w3.org/2000/svg">
<g id="gear-solid 1" clip-path="url(#clip0_10_49)">
<path id="Vector" d="M19.3711 6.50781C19.4961 6.84766 19.3906 7.22656 19.1211 7.46875L17.4297 9.00781C17.4727 9.33203 17.4961 9.66406 17.4961 10C17.4961 10.3359 17.4727 10.668 17.4297 10.9922L19.1211 12.5312C19.3906 12.7734 19.4961 13.1523 19.3711 13.4922C19.1992 13.957 18.9922 14.4023 18.7539 14.832L18.5703 15.1484C18.3125 15.5781 18.0234 15.9844 17.707 16.3672C17.4766 16.6484 17.0937 16.7422 16.75 16.6328L14.5742 15.9414C14.0508 16.3438 13.4727 16.6797 12.8555 16.9336L12.3672 19.1641C12.2891 19.5195 12.0156 19.8008 11.6562 19.8594C11.1172 19.9492 10.5625 19.9961 9.99609 19.9961C9.42968 19.9961 8.87499 19.9492 8.33593 19.8594C7.97656 19.8008 7.70312 19.5195 7.62499 19.1641L7.13671 16.9336C6.51953 16.6797 5.9414 16.3438 5.41796 15.9414L3.24609 16.6367C2.90234 16.7461 2.51953 16.6484 2.28906 16.3711C1.97265 15.9883 1.68359 15.582 1.42578 15.1523L1.24218 14.8359C1.0039 14.4062 0.79687 13.9609 0.624995 13.4961C0.499995 13.1562 0.605464 12.7773 0.874995 12.5352L2.5664 10.9961C2.52343 10.668 2.49999 10.3359 2.49999 10C2.49999 9.66406 2.52343 9.33203 2.5664 9.00781L0.874995 7.46875C0.605464 7.22656 0.499995 6.84766 0.624995 6.50781C0.79687 6.04297 1.0039 5.59766 1.24218 5.16797L1.42578 4.85156C1.68359 4.42188 1.97265 4.01562 2.28906 3.63281C2.51953 3.35156 2.90234 3.25781 3.24609 3.36719L5.42187 4.05859C5.94531 3.65625 6.52343 3.32031 7.14062 3.06641L7.6289 0.835938C7.70703 0.480469 7.98046 0.199219 8.33984 0.140625C8.8789 0.046875 9.43359 0 9.99999 0C10.5664 0 11.1211 0.046875 11.6602 0.136719C12.0195 0.195312 12.293 0.476562 12.3711 0.832031L12.8594 3.0625C13.4766 3.31641 14.0547 3.65234 14.5781 4.05469L16.7539 3.36328C17.0977 3.25391 17.4805 3.35156 17.7109 3.62891C18.0273 4.01172 18.3164 4.41797 18.5742 4.84766L18.7578 5.16406C18.9961 5.59375 19.2031 6.03906 19.375 6.50391L19.3711 6.50781ZM9.99999 13.125C10.8288 13.125 11.6237 12.7958 12.2097 12.2097C12.7958 11.6237 13.125 10.8288 13.125 10C13.125 9.1712 12.7958 8.37634 12.2097 7.79029C11.6237 7.20424 10.8288 6.875 9.99999 6.875C9.17119 6.875 8.37634 7.20424 7.79029 7.79029C7.20423 8.37634 6.87499 9.1712 6.87499 10C6.87499 10.8288 7.20423 11.6237 7.79029 12.2097C8.37634 12.7958 9.17119 13.125 9.99999 13.125Z" fill="white"/>
</g>
<defs>
<clipPath id="clip0_10_49">
<rect width="20" height="20" fill="white"/>
</clipPath>
</defs>
</svg>
