<svg width="53" height="60" viewBox="0 0 53 60" fill="none" xmlns="http://www.w3.org/2000/svg">
<path id="icons8-security-configuration-100 1 (Traced)" fill-rule="evenodd" clip-rule="evenodd" d="M17.5222 3.57148C13.4074 5.5354 7.78134 7.7413 5.02037 8.4744L0 9.80644L0.378862 15.5958C0.825955 22.4177 2.89743 31.0706 5.413 36.6228C9.14057 44.8498 16.0295 53.1194 23.0118 57.7492L26.4072 60L29.9014 57.6252C34.1509 54.7377 40.6011 48.0008 43.6206 43.2974C48.6727 35.4267 51.9849 25.1231 52.6403 15.24L53 9.81842L48.158 8.52172C45.4952 7.80838 39.8512 5.59889 35.616 3.61161C31.3809 1.62433 27.2601 -0.00119722 26.4593 6.61632e-07C25.6591 0.000599601 21.637 1.60815 17.5222 3.57148ZM29.3938 16.1696C29.7003 18.4641 30.4107 18.7977 32.4355 17.601C34.2885 16.5056 34.2903 16.5056 35.9129 18.1299C37.5361 19.7536 37.5361 19.7554 36.4414 21.6098C35.2456 23.636 35.5789 24.3469 37.8718 24.6536C39.1599 24.8261 39.3933 25.201 39.5495 27.3452C39.7201 29.6889 39.6231 29.8595 37.9108 30.2363C35.4508 30.7771 35.1827 31.4419 36.6138 33.4532L37.8258 35.156L36.0422 36.8659C34.2736 38.5615 34.2436 38.5669 32.4732 37.52C30.3431 36.261 29.7661 36.5138 29.2855 38.9167C28.9557 40.5662 28.7133 40.7261 26.5419 40.7261C24.2939 40.7261 24.1382 40.6087 23.7672 38.6298C23.3308 36.3029 22.6497 36.0628 20.5866 37.5086C19.2543 38.443 19.1179 38.4064 17.3648 36.6521C15.5746 34.8607 15.5567 34.7858 16.5532 33.2645C17.7838 31.385 17.4827 30.7621 15.0892 30.2363C13.3769 29.8595 13.2799 29.6889 13.4505 27.3452C13.6067 25.201 13.8401 24.8261 15.1282 24.6536C17.4211 24.3469 17.7544 23.636 16.5586 21.6098C15.4639 19.7554 15.4639 19.7536 17.0871 18.1299C18.6965 16.5188 18.7258 16.514 20.5118 17.5699C22.6539 18.8361 23.2812 18.5629 23.815 16.1306C24.1915 14.4171 24.3621 14.3201 26.7041 14.4908C28.8468 14.6471 29.2215 14.8807 29.3938 16.1696ZM24.1059 25.1537C23.4476 25.8125 22.9089 26.8906 22.9089 27.5494C22.9089 28.2083 23.4476 29.2864 24.1059 29.9452C24.7643 30.604 25.8416 31.1431 26.5 31.1431C28.0418 31.1431 30.0911 29.0923 30.0911 27.5494C30.0911 26.8906 29.5524 25.8125 28.8941 25.1537C28.2357 24.4948 27.1584 23.9558 26.5 23.9558C25.8416 23.9558 24.7643 24.4948 24.1059 25.1537Z" fill="white"/>
</svg>
