<svg width="52" height="54" viewBox="0 0 52 54" fill="none" xmlns="http://www.w3.org/2000/svg">
<path fill-rule="evenodd" clip-rule="evenodd" d="M8.49849 3.13029C4.46849 6.66929 3.15249 11.3773 4.83949 16.2173C5.87449 19.1863 5.71549 19.6833 2.74849 22.7443C0.255488 25.3163 -0.195511 26.3263 0.732489 27.2543C1.66049 28.1823 2.67049 27.7313 5.24249 25.2383C8.30349 22.2713 8.80049 22.1123 11.7695 23.1473C16.6095 24.8343 21.3175 23.5183 24.8565 19.4883C34.4595 8.55029 19.4365 -6.47271 8.49849 3.13029ZM40.6445 14.6763C40.2525 15.0673 39.9325 23.1873 39.9325 32.7213C39.9325 49.3003 39.8465 50.0543 37.9625 50.0543C36.1195 50.0543 35.9745 49.2283 35.7125 37.3043L35.4325 24.5543H29.9325H24.4325L24.1525 37.3043C23.8925 49.1393 23.7345 50.0543 21.9415 50.0543C20.2025 50.0543 19.9815 49.1843 19.7215 41.3043L19.4325 32.5543H13.9325H8.43249L8.14249 41.3703C7.88949 49.0603 7.63449 50.1443 6.14249 49.8603C4.73849 49.5923 4.34349 48.0173 3.93249 41.0443C3.54049 34.3863 3.10849 32.5543 1.93249 32.5543C0.736489 32.5543 0.374488 34.3173 0.144488 41.2663C-0.300512 54.6843 -1.46851 54.1523 27.7005 53.8223L51.4325 53.5543V34.0543V14.5543L46.3945 14.2593C43.6225 14.0973 41.0355 14.2843 40.6445 14.6763Z" fill="black"/>
</svg>
