<svg width="52" height="57" viewBox="0 0 52 57" fill="none" xmlns="http://www.w3.org/2000/svg">
<path fill-rule="evenodd" clip-rule="evenodd" d="M19.877 2.12386C18.777 3.22386 17.877 5.19386 17.877 6.50186C17.877 10.3189 15.412 11.7189 11.307 10.2349C6.84105 8.61986 4.44805 9.46386 1.92705 13.5439C-0.893954 18.1079 -0.643954 20.8469 2.87705 23.9369C4.52705 25.3849 5.87705 27.2689 5.87705 28.1239C5.87705 28.9789 4.52705 30.8629 2.87705 32.3109C-0.630954 35.3899 -0.894954 38.1399 1.88805 42.6419C4.27405 46.5019 6.64805 47.3139 11.337 45.8749C15.46 44.6099 17.877 46.0399 17.877 49.7459C17.877 53.4369 21.247 56.1239 25.877 56.1239C30.507 56.1239 33.877 53.4369 33.877 49.7459C33.877 46.0399 36.294 44.6099 40.417 45.8749C45.168 47.3329 47.455 46.5039 49.842 42.4589C52.624 37.7439 52.401 35.4039 48.877 32.3109C47.227 30.8629 45.877 28.9789 45.877 28.1239C45.877 27.2689 47.227 25.3849 48.877 23.9369C52.398 20.8469 52.648 18.1079 49.827 13.5439C47.306 9.46386 44.913 8.61986 40.447 10.2349C36.342 11.7189 33.877 10.3189 33.877 6.50186C33.877 0.690862 24.304 -2.30314 19.877 2.12386ZM30.732 19.5489C37.481 23.0389 37.279 33.7969 30.405 36.9289C25.274 39.2669 19.682 37.5809 17.302 32.9789C12.608 23.9019 21.655 14.8549 30.732 19.5489Z" fill="black"/>
</svg>
