<svg width="49" height="38" viewBox="0 0 49 38" fill="none" xmlns="http://www.w3.org/2000/svg">
<path fill-rule="evenodd" clip-rule="evenodd" d="M1.60564 2.15766C0.479638 3.28466 0.0346379 5.69266 0.0346379 10.6577V17.5867H6.11464H12.1956L13.7826 13.5457C15.9566 8.01166 17.9286 8.77066 20.3766 16.0867L22.3846 22.0867L24.7756 16.8367C27.4826 10.8947 29.3006 10.2667 31.4976 14.5157C32.3616 16.1857 33.9846 17.5827 35.2736 17.7657C36.5176 17.9427 37.5346 18.7617 37.5346 19.5867C37.5346 21.7227 32.2636 22.1037 30.0776 20.1247C28.4036 18.6107 28.1606 18.8487 26.0306 24.0977C23.3536 30.6917 21.3796 30.9847 19.3726 25.0867C16.8376 17.6387 17.0066 17.8967 15.9176 19.8367C15.1196 21.2587 13.5396 21.5867 7.48464 21.5867H0.0346379V28.0047C0.0346379 38.3767 -1.94536 37.5867 24.0346 37.5867C43.8896 37.5867 46.8986 37.3837 47.4276 36.0047C47.7616 35.1347 48.0346 27.5167 48.0346 19.0767C48.0346 6.45766 47.7556 3.44966 46.4636 2.15766C44.1186 -0.186342 3.95064 -0.186342 1.60564 2.15766Z" fill="black"/>
</svg>
