<svg width="64" height="48" viewBox="0 0 64 48" fill="none" xmlns="http://www.w3.org/2000/svg">
<path fill-rule="evenodd" clip-rule="evenodd" d="M23.3447 1.24442C15.1897 3.91642 5.88069 12.0264 1.38469 20.3754C-0.476309 23.8314 -0.475309 23.9444 1.47169 27.5724C4.79569 33.7694 12.7247 41.6294 18.5037 44.4564C31.2137 50.6754 43.8467 48.2224 54.4597 37.4744C57.7657 34.1254 61.3547 29.6994 62.4367 27.6364C64.3937 23.9064 64.3937 23.8674 62.4257 20.2004C59.1017 14.0034 51.1727 6.14342 45.3937 3.31642C38.8927 0.134417 29.4397 -0.753583 23.3447 1.24442ZM41.0667 14.7684C44.5877 18.2894 44.9487 19.1384 44.9487 23.8864C44.9487 28.6344 44.5877 29.4834 41.0667 33.0044C37.5457 36.5254 36.6967 36.8864 31.9487 36.8864C27.2007 36.8864 26.3517 36.5254 22.8307 33.0044C19.3097 29.4834 18.9487 28.6344 18.9487 23.8864C18.9487 19.1384 19.3097 18.2894 22.8307 14.7684C26.3517 11.2474 27.2007 10.8864 31.9487 10.8864C36.6967 10.8864 37.5457 11.2474 41.0667 14.7684ZM26.4037 18.3414C21.4427 23.3014 24.9577 31.8864 31.9487 31.8864C33.8967 31.8864 35.9467 30.9794 37.4937 29.4314C42.4547 24.4714 38.9397 15.8864 31.9487 15.8864C30.0007 15.8864 27.9507 16.7934 26.4037 18.3414Z" fill="black"/>
</svg>
