<?xml version="1.0" encoding="UTF-8" standalone="no"?>
<!-- Created with Inkscape (http://www.inkscape.org/) -->

<svg
   version="1.1"
   id="svg1"
   width="85.262337"
   height="64"
   viewBox="0 0 85.262337 64"
   xmlns="http://www.w3.org/2000/svg"
   xmlns:svg="http://www.w3.org/2000/svg">
  <defs
     id="defs1" />
  <g
     id="g1"
     transform="translate(0,-10.666667)">
    <path
       style="fill:#000000"
       d="m 58.071018,62.333335 7.333355,-12.333334 1.297815,-2 1.297814,-2 1.297814,2 1.297815,2 7.333355,12.333334 7.333354,12.333334 H 68.000002 50.737662 Z m 11.262317,5.666667 v -1.333333 h -1.333333 -1.333333 v 1.333333 1.333333 h 1.333333 1.333333 z m 0,-8 v -4 h -1.333333 -1.333333 v 4 4 h 1.333333 1.333333 z M 1.6,67.733335 0,66.133335 V 50.400002 34.666668 h 38.666668 38.666668 l -0.02042,10.333333 -0.02042,10.333334 -1.36449,-2 -1.36449,-2 -2.642192,-5 -2.642192,-5 h -1.094467 -1.094467 l -8.236673,14 -8.236673,14 H 26.908429 3.2 Z M 0,22.933334 v -9.066667 l 1.6,-1.6 1.6,-1.6 H 18.906235 34.612471 L 37.333334,16 l 2.720864,5.333334 h 17.039569 17.039569 l 1.6,1.6 1.6,1.6 v 3.733334 3.733333 H 38.666668 0 Z"
       id="path1" />
  </g>
</svg>
