<?xml version="1.0" encoding="UTF-8" standalone="no"?>
<!-- Created with Inkscape (http://www.inkscape.org/) -->

<svg
   version="1.1"
   id="svg1"
   width="83.920242"
   height="84.40123"
   viewBox="0 0 83.920242 84.40123"
   xmlns="http://www.w3.org/2000/svg"
   xmlns:svg="http://www.w3.org/2000/svg">
  <defs
     id="defs1" />
  <g
     id="g1"
     transform="translate(-0.706545,-1.1550493)">
    <path
       style="fill:#000000"
       d="M 24.666667,81.540496 C 15.585043,77.237246 7.72461,69.284929 3.536377,60.163205 1.401577,55.513736 0.706545,51.380171 0.706545,43.333332 c 0,-17.458874 7.849336,-30.071996 23.617863,-37.9516221 16.309101,-8.1497533 37.350782,-4.2184574 49.49249,9.2468661 8.075612,8.955964 10.809892,16.216623 10.809892,28.704756 0,8.046839 -0.69503,12.180404 -2.82983,16.829873 C 71.768955,82.003605 45.99628,91.64735 24.666667,81.540496 Z M 46.000001,64.684925 c 0,-3.05076 -4.476181,-4.483851 -6.050203,-1.937029 -1.649112,2.668318 0.132998,5.429708 3.219907,4.989265 1.799365,-0.256735 2.830296,-1.368508 2.830296,-3.052236 z m 0.460246,-14.57367 c 0.268119,-1.405475 2.483245,-4.43765 4.922503,-6.738166 5.35384,-5.049321 6.832155,-10.02584 4.587812,-15.444163 -3.518195,-8.493674 -14.084915,-12.035225 -21.148064,-7.088003 -3.662452,2.565281 -7.132588,10.132893 -5.999932,13.084547 1.196676,3.118487 5.532127,2.508583 6.578626,-0.925471 2.171843,-7.126839 7.077148,-9.457051 11.493822,-5.460016 3.664009,3.315882 2.956056,7.435096 -2.124086,12.358963 -4.587752,4.446625 -6.900325,9.734304 -5.352573,12.238618 1.366778,2.211493 6.516125,0.729765 7.041892,-2.026309 z"
       id="path1" />
  </g>
</svg>
