<svg width="19" height="26" viewBox="0 0 19 26" fill="none" xmlns="http://www.w3.org/2000/svg">
<g clip-path="url(#clip0_54_229)">
<path opacity="0.7" d="M11.0833 7.12061V0.47998H1.1875C0.529427 0.47998 0 1.00244 0 1.65186V24.3081C0 24.9575 0.529427 25.48 1.1875 25.48H17.8125C18.4706 25.48 19 24.9575 19 24.3081V8.29248H12.2708C11.6177 8.29248 11.0833 7.76514 11.0833 7.12061ZM19 6.43213V6.72998H12.6667V0.47998H12.9685C13.2852 0.47998 13.587 0.602051 13.8096 0.821777L18.6536 5.60693C18.8763 5.82666 19 6.12451 19 6.43213Z" fill="#333333"/>
</g>
<rect x="0.5" y="0.97998" width="18" height="24" stroke="#B6B6B6"/>
<defs>
<clipPath id="clip0_54_229">
<rect y="0.47998" width="19" height="25" fill="white"/>
</clipPath>
</defs>
</svg>
